<?xml version="1.0" encoding="UTF-8" standalone="no"?>
<!DOCTYPE svg PUBLIC "-//W3C//DTD SVG 1.1//EN"
"http://www.w3.org/Graphics/SVG/1.1/DTD/svg11.dtd">


<!-- Page 1 -->
<svg x="0" y="0" width="274" height="274" viewBox="0 0 274 274" version="1.1" xmlns="http://www.w3.org/2000/svg" xmlns:xlink="http://www.w3.org/1999/xlink"
style="display: block;margin-left: auto;margin-right: auto;">
<defs>

<style type="text/css"><![CDATA[

.g1_1{
fill: #D8D8D8;
}
.g2_1{
fill: #EBEBEB;
}
.g3_1{
fill: none;
stroke: #000000;
stroke-width: 0.6088194;
stroke-linecap: butt;
stroke-linejoin: miter;
}
.g4_1{
fill: none;
stroke: #000000;
stroke-width: 0.6088194;
stroke-linecap: butt;
stroke-linejoin: miter;
stroke-dasharray: 5,5;
}
.g5_1{
fill: none;
stroke: #000000;
stroke-width: 1.2176542;
stroke-linecap: butt;
stroke-linejoin: miter;
}
.g6_1{
stroke: #000000;
stroke-width: 1.2176542;
stroke-linecap: butt;
stroke-linejoin: round;
}

.s1_1{
font-size: 15.22px;
font-family: CMMI10_8;
fill: #000000;
}
.s2_1{
font-size: 10.65px;
font-family: CMR7_9;
fill: #000000;
}
.s3_1{
font-size: 15.22px;
font-family: CMR10_a;
fill: #000000;
}

]]></style>

</defs>
<path d="M0,0
L0,274
L274,274
L274,0 Z " 
fill="#FFFFFF" stroke="none" />
<path d="M23.8,250.8l0,-216.5l216.5,0l0,216.5Z" class="g1_1" />
<path d="M132.1,142.5l0,-108.2l108.2,0l0,108.2Z" class="g2_1" />
<path d="M132.1,34.3l0,108.2" class="g3_1" />
<path d="M132.1,142.5l108.2,0" class="g3_1" />
<path d="M132.1,250.8l0,-43.3" class="g4_1" />
<path d="M132.1,185.8l0,-43.3" class="g4_1" />
<path d="M132.1,142.5l-108.3,0" class="g4_1" />
<path d="M2.2,250.8l257.6,0" class="g5_1" />
<path d="M261.4,250.8c-2,-0.4,-4,-1.2,-6.3,-2.6c2.3,1.8,2.3,3.4,0,5.2c2.3,-1.4,4.3,-2.2,6.3,-2.6Z" class="g6_1" />
<path d="M23.8,272.4l0,-257.6" class="g5_1" />
<path d="M23.8,13.2c-0.4,2,-1.2,4,-2.6,6.3c1.8,-2.3,3.4,-2.3,5.2,0C25,17.2,24.2,15.2,23.8,13.2Z" class="g6_1" />
<path d="M240.3,250.8l0,-216.5" class="g3_1" />
<path d="M23.8,34.3l216.5,0" class="g3_1" />
<text 
x="125" 
y="265" 
dx="0" 
class="s1_1"
>t</text>

<text 
x="131" 
y="267" 
dx="0" 
class="s2_1"
>1</text>

<text 
x="6" 
y="146" 
dx="0" 
class="s1_1"
>t</text>

<text 
x="12" 
y="148" 
dx="0" 
class="s2_1"
>2</text>

<text 
x="118" 
y="156" 
dx="0" 
class="s3_1"
>¯</text>

<text 
x="118" 
y="159" 
dx="0" 
class="s1_1"
>t</text>

<text 
x="254" 
y="265" 
dx="0" 
class="s1_1"
>f</text>

<text 
x="262" 
y="267" 
dx="0" 
class="s2_1"
>1</text>

<text 
x="5" 
y="16" 
dx="0" 
class="s1_1"
>f</text>

<text 
x="13" 
y="18" 
dx="0" 
class="s2_1"
>2</text>

<text 
x="156" 
y="91" 
dx="0,0,0,0,0,0,0,0.5,0" 
class="s1_1"
>positives</text>

<text 
x="99" 
y="200" 
dx="0,0,0,0.5,0,0,0,0.5,0" 
class="s1_1"
>negatives</text>

<path d="M134.4,142.5c0,-1.2,-1.1,-2.3,-2.3,-2.3c-1.3,0,-2.3,1.1,-2.3,2.3c0,1.3,1,2.3,2.3,2.3c1.2,0,2.3,-1,2.3,-2.3Z" class="g2_1" />
<path d="M134.4,142.5c0,-1.2,-1.1,-2.3,-2.3,-2.3c-1.3,0,-2.3,1.1,-2.3,2.3c0,1.3,1,2.3,2.3,2.3c1.2,0,2.3,-1,2.3,-2.3Z" class="g3_1" />


<!-- Any embedded fonts defined here -->
<style type="text/css" ><![CDATA[

@font-face {
	font-family: CMMI10_8;
	src: url("fonts/CMMI10_8.woff") format("woff");
}

@font-face {
	font-family: CMR10_a;
	src: url("fonts/CMR10_a.woff") format("woff");
}

@font-face {
	font-family: CMR7_9;
	src: url("fonts/CMR7_9.woff") format("woff");
}

]]></style>

</svg>
