<?xml version="1.0" encoding="UTF-8" standalone="no"?>
<!DOCTYPE svg PUBLIC "-//W3C//DTD SVG 1.1//EN"
"http://www.w3.org/Graphics/SVG/1.1/DTD/svg11.dtd">


<!-- Page 1 -->
<svg x="0" y="0" width="274" height="274" viewBox="0 0 274 274" version="1.1" xmlns="http://www.w3.org/2000/svg" xmlns:xlink="http://www.w3.org/1999/xlink"
style="display: block;margin-left: auto;margin-right: auto;">
<defs>

<style type="text/css"><![CDATA[

.g1_1{
fill: #D8D8D8;
}
.g2_1{
fill: #EBEBEB;
}
.g3_1{
fill: none;
stroke: #000000;
stroke-width: 0.6088194;
stroke-linecap: butt;
stroke-linejoin: miter;
}
.g4_1{
fill: none;
stroke: #000000;
stroke-width: 1.2176542;
stroke-linecap: butt;
stroke-linejoin: miter;
}
.g5_1{
stroke: #000000;
stroke-width: 1.2176542;
stroke-linecap: butt;
stroke-linejoin: round;
}

.s1_1{
font-size: 15.22px;
font-family: CMMI10_8;
fill: #000000;
}
.s2_1{
font-size: 10.65px;
font-family: CMR7_9;
fill: #000000;
}
.s3_1{
font-size: 15.22px;
font-family: CMR10_a;
fill: #000000;
}

]]></style>

</defs>
<path d="M0,0
L0,274
L274,274
L274,0 Z " 
fill="#FFFFFF" stroke="none" />
<path d="M23.8,250.8l0,-216.5l216.5,0l0,216.5Z" class="g1_1" />
<path d="M56.3,55.9l0,-21.6l184,0l0,21.6Z" class="g2_1" />
<path d="M132.1,142.5l0,-108.2l108.2,0l0,108.2Z" class="g2_1" />
<path d="M88.8,99.2l0,-64.9l151.5,0l0,64.9Z" class="g2_1" />
<path d="M197,207.5L197,34.3l43.3,0l0,173.2Z" class="g2_1" />
<path d="M56.3,34.3l0,21.6" class="g3_1" />
<path d="M56.3,55.9l32.5,0" class="g3_1" />
<path d="M88.8,55.9l0,43.3" class="g3_1" />
<path d="M88.8,99.2l43.3,0" class="g3_1" />
<path d="M132.1,99.2l0,43.3" class="g3_1" />
<path d="M132.1,142.5l64.9,0" class="g3_1" />
<path d="M197,142.5l0,65" class="g3_1" />
<path d="M197,207.5l43.3,0" class="g3_1" />
<path d="M2.2,250.8l257.6,0" class="g4_1" />
<path d="M261.4,250.8c-2,-0.4,-4,-1.2,-6.3,-2.6c2.3,1.8,2.3,3.4,0,5.2c2.3,-1.4,4.3,-2.2,6.3,-2.6Z" class="g5_1" />
<path d="M23.8,272.4l0,-257.6" class="g4_1" />
<path d="M23.8,13.2c-0.4,2,-1.2,4,-2.6,6.3c1.8,-2.3,3.4,-2.3,5.2,0C25,17.2,24.2,15.2,23.8,13.2Z" class="g5_1" />
<path d="M240.3,250.8l0,-216.5" class="g3_1" />
<path d="M23.8,34.3l216.5,0" class="g3_1" />
<text 
x="254" 
y="265" 
dx="0" 
class="s1_1"
>f</text>

<text 
x="262" 
y="267" 
dx="0" 
class="s2_1"
>1</text>

<text 
x="5" 
y="16" 
dx="0" 
class="s1_1"
>f</text>

<text 
x="13" 
y="18" 
dx="0" 
class="s2_1"
>2</text>

<text 
x="39" 
y="68" 
dx="0" 
class="s3_1"
>¯</text>

<text 
x="39" 
y="71" 
dx="0" 
class="s1_1"
>t</text>

<text 
x="44" 
y="73" 
dx="0" 
class="s2_1"
>1</text>

<text 
x="115" 
y="155" 
dx="0" 
class="s3_1"
>¯</text>

<text 
x="115" 
y="157" 
dx="0" 
class="s1_1"
>t</text>

<text 
x="120" 
y="160" 
dx="0" 
class="s2_1"
>2</text>

<text 
x="71" 
y="111" 
dx="0" 
class="s3_1"
>¯</text>

<text 
x="71" 
y="114" 
dx="0" 
class="s1_1"
>t</text>

<text 
x="77" 
y="116" 
dx="0" 
class="s2_1"
>3</text>

<text 
x="180" 
y="220" 
dx="0" 
class="s3_1"
>¯</text>

<text 
x="180" 
y="222" 
dx="0" 
class="s1_1"
>t</text>

<text 
x="185" 
y="225" 
dx="0" 
class="s2_1"
>4</text>

<path d="M58.6,55.9c0,-1.3,-1.1,-2.3,-2.3,-2.3c-1.3,0,-2.3,1,-2.3,2.3c0,1.3,1,2.3,2.3,2.3c1.2,0,2.3,-1,2.3,-2.3Z" class="g2_1" />
<path d="M134.4,142.5c0,-1.2,-1.1,-2.3,-2.3,-2.3c-1.3,0,-2.3,1.1,-2.3,2.3c0,1.3,1,2.3,2.3,2.3c1.2,0,2.3,-1,2.3,-2.3Z" class="g2_1" />
<path d="M91,99.2C91,98,90,96.9,88.8,96.9c-1.3,0,-2.3,1.1,-2.3,2.3c0,1.3,1,2.3,2.3,2.3c1.2,0,2.2,-1,2.2,-2.3Z" class="g2_1" />
<path d="M199.3,207.5c0,-1.3,-1,-2.3,-2.3,-2.3c-1.2,0,-2.2,1,-2.2,2.3c0,1.2,1,2.3,2.2,2.3c1.3,0,2.3,-1.1,2.3,-2.3Z" class="g2_1" />
<path d="M58.6,55.9c0,-1.3,-1.1,-2.3,-2.3,-2.3c-1.3,0,-2.3,1,-2.3,2.3c0,1.3,1,2.3,2.3,2.3c1.2,0,2.3,-1,2.3,-2.3Z" class="g3_1" />
<path d="M134.4,142.5c0,-1.2,-1.1,-2.3,-2.3,-2.3c-1.3,0,-2.3,1.1,-2.3,2.3c0,1.3,1,2.3,2.3,2.3c1.2,0,2.3,-1,2.3,-2.3Z" class="g3_1" />
<path d="M91,99.2C91,98,90,96.9,88.8,96.9c-1.3,0,-2.3,1.1,-2.3,2.3c0,1.3,1,2.3,2.3,2.3c1.2,0,2.2,-1,2.2,-2.3Z" class="g3_1" />
<path d="M199.3,207.5c0,-1.3,-1,-2.3,-2.3,-2.3c-1.2,0,-2.2,1,-2.2,2.3c0,1.2,1,2.3,2.2,2.3c1.3,0,2.3,-1.1,2.3,-2.3Z" class="g3_1" />
<text 
x="156" 
y="91" 
dx="0,0,0,0,0,0,0,0.5,0" 
class="s1_1"
>positives</text>

<text 
x="99" 
y="200" 
dx="0,0,0,0.5,0,0,0,0.5,0" 
class="s1_1"
>negatives</text>



<!-- Any embedded fonts defined here -->
<style type="text/css" ><![CDATA[

@font-face {
	font-family: CMMI10_8;
	src: url("fonts/CMMI10_8.woff") format("woff");
}

@font-face {
	font-family: CMR10_a;
	src: url("fonts/CMR10_a.woff") format("woff");
}

@font-face {
	font-family: CMR7_9;
	src: url("fonts/CMR7_9.woff") format("woff");
}

]]></style>

</svg>
